<svg height="862" width="720" xmlns="http://www.w3.org/2000/svg">
<rect height="862" fill="#555" width="720"></rect>
<text fill="#7f7" font-family="Courier New" font-size="12" xml:space="preserve">
<tspan x="10" y="26">4 megabytes installed</tspan>
<tspan x="10" y="42"></tspan>
<tspan x="10" y="58">node_modules</tspan>
<tspan x="10" y="74">└─┬ express-status-monitor@0.1.9 </tspan>
<tspan x="10" y="90">  ├── on-headers@1.0.1 </tspan>
<tspan x="10" y="106">  ├── pidusage@1.1.1 </tspan>
<tspan x="10" y="122">  └─┬ socket.io@1.7.3 </tspan>
<tspan x="10" y="138">    ├─┬ debug@2.3.3 </tspan>
<tspan x="10" y="154">    │ └── ms@0.7.2 </tspan>
<tspan x="10" y="170">    ├─┬ engine.io@1.8.3 </tspan>
<tspan x="10" y="186">    │ ├─┬ accepts@1.3.3 </tspan>
<tspan x="10" y="202">    │ │ ├─┬ mime-types@2.1.15 </tspan>
<tspan x="10" y="218">    │ │ │ └── mime-db@1.27.0 </tspan>
<tspan x="10" y="234">    │ │ └── negotiator@0.6.1 </tspan>
<tspan x="10" y="250">    │ ├── base64id@1.0.0 </tspan>
<tspan x="10" y="266">    │ ├── cookie@0.3.1 </tspan>
<tspan x="10" y="282">    │ ├─┬ engine.io-parser@1.3.2 </tspan>
<tspan x="10" y="298">    │ │ ├── after@0.8.2 </tspan>
<tspan x="10" y="314">    │ │ ├── arraybuffer.slice@0.0.6 </tspan>
<tspan x="10" y="330">    │ │ ├── base64-arraybuffer@0.1.5 </tspan>
<tspan x="10" y="346">    │ │ ├── blob@0.0.4 </tspan>
<tspan x="10" y="362">    │ │ └── wtf-8@1.0.0 </tspan>
<tspan x="10" y="378">    │ └─┬ ws@1.1.2 </tspan>
<tspan x="10" y="394">    │   ├── options@0.0.6 </tspan>
<tspan x="10" y="410">    │   └── ultron@1.0.2 </tspan>
<tspan x="10" y="426">    ├─┬ has-binary@0.1.7 </tspan>
<tspan x="10" y="442">    │ └── isarray@0.0.1 </tspan>
<tspan x="10" y="458">    ├── object-assign@4.1.0 </tspan>
<tspan x="10" y="474">    ├── socket.io-adapter@0.5.0 </tspan>
<tspan x="10" y="490">    ├─┬ socket.io-client@1.7.3 </tspan>
<tspan x="10" y="506">    │ ├── backo2@1.0.2 </tspan>
<tspan x="10" y="522">    │ ├── component-bind@1.0.0 </tspan>
<tspan x="10" y="538">    │ ├── component-emitter@1.2.1 </tspan>
<tspan x="10" y="554">    │ ├─┬ engine.io-client@1.8.3 </tspan>
<tspan x="10" y="570">    │ │ ├── component-emitter@1.2.1 </tspan>
<tspan x="10" y="586">    │ │ ├── component-inherit@0.0.3 </tspan>
<tspan x="10" y="602">    │ │ ├── has-cors@1.1.0 </tspan>
<tspan x="10" y="618">    │ │ ├── parsejson@0.0.3 </tspan>
<tspan x="10" y="634">    │ │ ├── parseqs@0.0.5 </tspan>
<tspan x="10" y="650">    │ │ ├── xmlhttprequest-ssl@1.5.3 </tspan>
<tspan x="10" y="666">    │ │ └── yeast@0.1.2 </tspan>
<tspan x="10" y="682">    │ ├── indexof@0.0.1 </tspan>
<tspan x="10" y="698">    │ ├── object-component@0.0.3 </tspan>
<tspan x="10" y="714">    │ ├─┬ parseuri@0.0.5 </tspan>
<tspan x="10" y="730">    │ │ └─┬ better-assert@1.0.2 </tspan>
<tspan x="10" y="746">    │ │   └── callsite@1.0.0 </tspan>
<tspan x="10" y="762">    │ └── to-array@0.1.4 </tspan>
<tspan x="10" y="778">    └─┬ socket.io-parser@2.3.1 </tspan>
<tspan x="10" y="794">      ├── component-emitter@1.1.2 </tspan>
<tspan x="10" y="810">      ├─┬ debug@2.2.0 </tspan>
<tspan x="10" y="826">      │ └── ms@0.7.1 </tspan>
<tspan x="10" y="842">      └── json3@3.3.2</tspan>
</text>
</svg>
